<?xml version="1.0" encoding="utf-8"?>
<!-- Generator: Adobe Illustrator 19.1.0, SVG Export Plug-In . SVG Version: 6.00 Build 0)  -->
<svg version="1.1" id="Layer_1" xmlns="http://www.w3.org/2000/svg" xmlns:xlink="http://www.w3.org/1999/xlink" x="0px" y="0px"
	 viewBox="0 358.6 308.7 73.4" style="enable-background:new 0 358.6 308.7 73.4;" xml:space="preserve">
<style type="text/css">
	.st0{fill:#0081C6;}
	.st1{fill:#FFFFFF;}
</style>
<g>
	<g>
		<g>
			<path class="st0" d="M47.6,372.7c0,6.3-5.1,11.4-11.4,11.4s-11.4-5.1-11.4-11.4c0.1-6.3,5.2-11.4,11.5-11.4
				C42.5,361.3,47.6,366.4,47.6,372.7"/>
			<path class="st1" d="M2.7,368.6c-1.1-4.7,2.9-4.9,3.8-2.7c10.7,20.8,24.5,45.9,29.9,45.9c5.3,0,19-25.1,29.5-45.9
				c0.9-2.3,5-1.7,3.9,2.5c-8.6,25.7-21.7,58.9-33.4,58.9C24.6,427.3,11.4,394.3,2.7,368.6"/>
		</g>
		<g>
			<path class="st1" d="M102.3,400.5c0-8.1-5.2-11.5-11.3-11.5c-6.1,0-11.3,3.4-11.3,11.5c0,7.4,4.1,11.8,11.3,11.8
				C98.2,412.4,102.3,407.9,102.3,400.5 M71.5,400.7c0-9.3,5.6-18.5,19.4-18.5s19.4,9.2,19.4,18.5c0,13.8-9.9,18.5-19.4,18.5
				C81.5,419.2,71.5,414.5,71.5,400.7"/>
			<path class="st1" d="M120.1,383.4h7.9v4.3c2.5-2.5,5.9-5.5,13-5.5c7.2,0,13.6,3,13.6,13.6V418h-8v-19.2c0-6.8-2.1-9.8-7.4-9.8
				c-6.4,0-9,2.6-11,5.1V418h-8v-34.6H120.1z"/>
			<path class="st1" d="M192.8,400.5c-4.7,0.2-8.7,0.8-12.5,1.7c-5,1.2-7.3,2.8-7.4,5.9c-0.1,3,1.9,4.8,5.8,4.8
				c6.1,0,10.9-2.6,14-4.5L192.8,400.5L192.8,400.5z M200.8,412.4c0,2.3,0.1,4.6,0.6,5.6h-8.2c-0.3-1.2-0.5-2.3-0.5-3.5
				c-3.4,1.9-8.3,4.7-15.2,4.7c-4.6,0-13.4-1.9-13.4-10.5c0-11.7,17.4-13.4,28.6-14v-1.6c0-2.6-2.4-4.5-9-4.5
				c-7.4,0-8.9,2.7-9.4,4.6H166c1.9-9.4,11.2-11.1,17.6-11.1c16.7,0,17.1,8.1,17.1,12.9L200.8,412.4L200.8,412.4z"/>
			<path class="st1" d="M238.5,394.9c0-5.2-5.3-6.7-9.6-6.7c-4.4,0-9.3,1.6-9.3,6.8c0,5.4,5,6.8,9.2,6.8
				C233.1,401.7,238.5,400,238.5,394.9 M223,418.5c-1.9,0-4.6,0.5-4.6,2.5c0,2.8,3.7,3.2,10.1,3.2c6.3,0,13-0.7,13-3.5
				c0-2.4-1.4-2.3-10.3-2.2H223z M250.2,389c-0.7-0.2-2-0.7-2.9-0.5c-0.9,0-2.1,0.4-2.6,0.7c0.5,0.7,1.6,2.8,1.6,5.7
				c0,9.4-8.4,12.8-17.6,12.8c-3.2,0-5.8-0.5-7.3-1.1c-0.9,0.6-2.2,1.6-2.2,2.8c0,1.2,0.8,2.1,7.8,2h10.9c7.8,0.3,12.3,2.5,12.3,7.9
				c0,8.3-12.1,10.7-22.6,10.7c-9.7,0-18.1-1.9-18.1-7.7c0-4.1,3.7-4.7,7-5.4v-0.1c-3-0.3-5.2-1.9-5.2-5.4s3.3-6.1,6.1-6.5v-0.1
				c-3.9-2.1-5.8-5.6-5.8-10c0-10.2,9.4-12.6,17.9-12.6c6.1,0,9.6,1.6,12,3.2c1.2-1.3,3.8-3.7,7.3-3.7h1.3v7.3H250.2z"/>
			<path class="st1" d="M287,396.7c-1.2-5.9-5.2-8.1-11-8.1c-4.2,0-9,1.4-10.7,8.1H287z M294.9,407.6c-0.6,2.8-5.2,11.6-18.1,11.6
				c-12.4,0-19.8-7.8-19.8-18.6c0-9.8,6.5-18.4,19.3-18.4c13.1,0.1,19.3,8.2,19.3,20.7h-30.4c0.3,2.2,1.5,9.4,11.4,9.8
				c5,0,8.4-2.4,9.6-5.1C286.2,407.6,294.9,407.6,294.9,407.6z"/>
			<path class="st1" d="M299.6,380.7h1.4c0.7,0,1.5,0.1,1.5,1.1c0,1.1-0.9,1.1-1.8,1.1h-1.1V380.7z M298.6,386.7h1.1v-3h1.1l1.9,3
				h1.1l-2-3c1-0.1,1.8-0.6,1.8-1.9c0-1.3-0.8-2-2.4-2h-2.7v6.9H298.6z M296,383.2c0-2.8,2.1-5,4.9-5c2.7,0,4.8,2.2,4.8,5
				c0,2.9-2.1,5.1-4.8,5.1C298.1,388.3,296,386.1,296,383.2 M294.9,383.2c0,3.4,2.7,5.9,5.9,5.9c3.2,0,5.9-2.5,5.9-5.9
				c0-3.3-2.7-5.9-5.9-5.9C297.6,377.4,294.9,379.9,294.9,383.2"/>
		</g>
	</g>
</g>
</svg>
